<svg xmlns="http://www.w3.org/2000/svg" viewBox="0 0 80 80" fill="none">
  <!-- 背景 -->
  <rect width="80" height="80" rx="20" fill="#1a1a2e"/>
  <!-- 锅的轮廓 -->
  <path d="M18 52 Q18 62 40 62 Q62 62 62 52 L58 36 Q55 30 40 30 Q25 30 22 36 Z" fill="none" stroke="#4a9eff" stroke-width="2.5" stroke-linejoin="round"/>
  <!-- 把手 -->
  <path d="M62 44 L70 42" stroke="#4a9eff" stroke-width="2.5" stroke-linecap="round"/>
  <path d="M62 48 L70 48" stroke="#4a9eff" stroke-width="2.5" stroke-linecap="round"/>
  <!-- 锅内水珠（不粘效果） -->
  <circle cx="34" cy="46" r="3" fill="#4a9eff" opacity="0.8"/>
  <circle cx="46" cy="44" r="2.5" fill="#4a9eff" opacity="0.7"/>
  <circle cx="40" cy="50" r="2" fill="#4a9eff" opacity="0.6"/>
  <!-- 水珠滑落箭头 -->
  <path d="M34 49 L32 53" stroke="#4a9eff" stroke-width="1.5" stroke-linecap="round" opacity="0.7"/>
  <path d="M46 47 L48 51" stroke="#4a9eff" stroke-width="1.5" stroke-linecap="round" opacity="0.7"/>
  <!-- 镜面光泽线 -->
  <path d="M28 36 Q40 33 52 36" stroke="#7ec8ff" stroke-width="1.5" stroke-linecap="round" opacity="0.5"/>
  <!-- 装饰点 -->
  <circle cx="40" cy="18" r="3" fill="#4a9eff" opacity="0.4"/>
  <circle cx="40" cy="18" r="5" fill="none" stroke="#4a9eff" stroke-width="1" opacity="0.3"/>
</svg>