<svg xmlns="http://www.w3.org/2000/svg" viewBox="0 0 80 80" fill="none">
  <!-- 背景 -->
  <rect width="80" height="80" rx="20" fill="#1a1a2e"/>
  <!-- 锅（底部小图） -->
  <path d="M24 60 Q24 66 40 66 Q56 66 56 60 L54 54 Q52 50 40 50 Q28 50 26 54 Z" fill="none" stroke="#4a9eff" stroke-width="2" opacity="0.7"/>
  <!-- 热气/香气曲线 -->
  <path d="M32 48 Q28 40 32 34 Q36 28 32 22" stroke="#4a9eff" stroke-width="2.5" stroke-linecap="round" fill="none"/>
  <path d="M40 46 Q36 38 40 32 Q44 26 40 20" stroke="#4a9eff" stroke-width="2.5" stroke-linecap="round" fill="none"/>
  <path d="M48 48 Q44 40 48 34 Q52 28 48 22" stroke="#4a9eff" stroke-width="2.5" stroke-linecap="round" fill="none"/>
  <!-- 蒸汽装饰点 -->
  <circle cx="32" cy="19" r="2.5" fill="#4a9eff" opacity="0.4"/>
  <circle cx="40" cy="17" r="2.5" fill="#4a9eff" opacity="0.4"/>
  <circle cx="48" cy="19" r="2.5" fill="#4a9eff" opacity="0.4"/>
  <!-- 金色光晕（锅气感） -->
  <circle cx="40" cy="56" r="8" fill="#4a9eff" opacity="0.07"/>
</svg>